{"title":"Orange is the New Black S05 1080p NFWEBRip HEVC DD5.1 x265","magnet":"magnet:?xt=urn:btih:c6dca135222f094d3caebb650e1214bc66fc8de1&dn=Orange+is+the+New+Black+S05+1080p+NFWEBRip+HEVC+DD5.1+x265&tr=udp%3A%2F%2Ftracker.leechers-paradise.org%3A6969&tr=udp%3A%2F%2Fzer0day.ch%3A1337&tr=udp%3A%2F%2Fopen.demonii.com%3A1337&tr=udp%3A%2F%2Ftracker.coppersurfer.tk%3A6969&tr=udp%3A%2F%2Fexodus.desync.com%3A6969","uploader":"nayhtut","categoryP":"video","categoryS":"hd___tv_shows","size":"9529743595","seeders":"50","leechers":"131","description":"Source: Orange is the New Black S05 1080p NF WEBRip DD5 1 x264-PLAYREADY (28 GiB)\r\n\r\n\r\nContains: Orange is the New Black Season Five Episode 01 to 13\r\n\r\n\r\nFormat : Matroska\r\nFormat version : Version 4 / Version 2\r\nFile size : 8. Gi87B\r\nDuration : Various\r\nOverall bit rate : 1 694 Kbps\r\nWriting application: Lavf57.56.101\r\n\r\n\r\nVideo\r\n\r\nID                                       : 1\r\nFormat                                   : V_MPEGH/ISO/HEVC\r\nDuration                                 : 1h 0mn\r\nBit rate                                 : 1 277 Kbps\r\nWidth                                    : 1 920 pixels\r\nHeight                                   : 1 080 pixels\r\nDisplay aspect ratio                     : 16:9\r\nFrame rate                               : 23.976 fps\r\nBits/(Pixel*Frame)                       : 0.026\r\nStream size                              : 550 MiB (75%)\r\nDefault                                  : Yes\r\nForced                                   : No\r\nDURATION                                 : 01:00:12.009000000\r\n\r\nAudio\r\n\r\nID                                       : 2\r\nFormat                                   : AC-3\r\nFormat/Info                              : Audio Coding 3\r\nMode extension                           : CM (complete main)\r\nFormat settings, Endianness              : Big\r\nCodec ID                                 : A_AC3\r\nDuration                                 : 1h 0mn\r\nBit rate mode                            : Constant\r\nBit rate                                 : 384 Kbps\r\nChannel(s)                               : 6 channels\r\nChannel positions                        : Front: L C R, Side: L R, LFE\r\nSampling rate                            : 48.0 KHz\r\nBit depth                                : 32 bits\r\nCompression mode                         : Lossy\r\nStream size                              : 165 MiB (23%)\r\nWriting library                          : Lavc57.24.102 ac3\r\nDefault                                  : Yes\r\nForced                                   : No\r\nDURATION                                 : 01:00:12.351000000\r\n\r\nText\r\n\r\nID                                       : 3\r\nCodec ID                                 : S_TEXT/ASS\r\nLanguage                                 : English\r\nDefault                                  : Yes","last_updated":"2017-06-10T12:03:30.016Z","parsed":{"xt":"urn:btih:c6dca135222f094d3caebb650e1214bc66fc8de1","dn":"Orange is the New Black S05 1080p NFWEBRip HEVC DD5.1 x265","tr":["udp://exodus.desync.com:6969","udp://open.demonii.com:1337","udp://tracker.coppersurfer.tk:6969","udp://tracker.leechers-paradise.org:6969","udp://zer0day.ch:1337"],"infoHash":"c6dca135222f094d3caebb650e1214bc66fc8de1","infoHashBuffer":{"type":"Buffer","data":[198,220,161,53,34,47,9,77,60,174,187,101,14,18,20,188,102,252,141,225]},"name":"Orange is the New Black S05 1080p NFWEBRip HEVC DD5.1 x265","announce":["udp://exodus.desync.com:6969","udp://open.demonii.com:1337","udp://tracker.coppersurfer.tk:6969","udp://tracker.leechers-paradise.org:6969","udp://zer0day.ch:1337"],"urlList":[]}}